<svg id="Layer_1" data-name="Layer 1" xmlns="http://www.w3.org/2000/svg" viewBox="0 0 436.06 75.56"><path d="M576.48,416.85c-4.29,0-6.85,3.32-6.85,8.67s2.56,8.72,6.85,8.72,6.84-3.32,6.84-8.72S580.77,416.85,576.48,416.85Z" transform="translate(-377.25 -382.1)"/><path d="M716.55,416.85c-3.47,0-6.27,2.07-6.27,6.45h12.39C722.67,418.92,719.92,416.85,716.55,416.85Z" transform="translate(-377.25 -382.1)"/><path d="M667.61,431c0,2.22,1.69,3.52,4.67,3.52,4.53,0,6.7-2.94,6.7-4.62v-3.52h-1.35C672.14,426.34,667.61,427.25,667.61,431Z" transform="translate(-377.25 -382.1)"/><path d="M454.78,416.85c-4.29,0-6.85,3.32-6.85,8.67s2.56,8.72,6.85,8.72,6.84-3.32,6.84-8.72S459.06,416.85,454.78,416.85Z" transform="translate(-377.25 -382.1)"/><path d="M804.76,382.1h-419a8.54,8.54,0,0,0-8.54,8.54v58.48a8.54,8.54,0,0,0,8.54,8.54h419a8.54,8.54,0,0,0,8.55-8.54V390.64A8.54,8.54,0,0,0,804.76,382.1Zm-56.43,18.7h21v7.79h-21ZM422.42,433.62a10.76,10.76,0,0,0,10.94-9.06h6.07c-1.06,8.28-7.47,14.4-17,14.4-11,0-17.64-7.85-17.64-18.89,0-11.32,6.89-19.27,17.83-19.27,9.35,0,15.76,6.16,16.77,14.36h-6.07a10.82,10.82,0,0,0-11-9c-7,0-11.32,5.69-11.32,13.74S415.28,433.62,422.42,433.62Zm32.4,5.34c-7.61,0-12.53-5.78-12.53-13.44s4.92-13.4,12.53-13.4,12.44,5.59,12.44,13.4S462.39,439,454.82,439Zm57.7-.77h-5.68V423.93c0-5.73-2.51-7.08-5.11-7.08-4,0-6.85,3-6.85,8v13.3H489.2V423.93c0-5.73-2.51-7.08-5.11-7.08-4,0-6.84,3-6.84,8v13.3h-5.69v-25.3h5.69v3.81a9.38,9.38,0,0,1,8.58-4.58c3.95,0,6.74,1.69,8.09,5.11a10.92,10.92,0,0,1,9.54-5.11c5.74,0,9.06,3.52,9.06,10.75Zm46.92,0h-5.69V423.93c0-5.73-2.5-7.08-5.11-7.08-4,0-6.84,3-6.84,8v13.3h-5.69V423.93c0-5.73-2.5-7.08-5.1-7.08-4,0-6.85,3-6.85,8v13.3h-5.68v-25.3h5.68v3.81a9.39,9.39,0,0,1,8.58-4.58c4,0,6.75,1.69,8.1,5.11a10.92,10.92,0,0,1,9.54-5.11c5.73,0,9.06,3.52,9.06,10.75Zm17.08.77c-7.61,0-12.53-5.78-12.53-13.44s4.92-13.4,12.53-13.4S589,417.71,589,425.52,584.09,439,576.52,439Zm40.07-.77H610.9V424.31c0-4.91-2-7.46-5.35-7.46-3.61,0-6.6,3-6.6,8v13.3h-5.69v-25.3H599v3.81a9.4,9.4,0,0,1,8.38-4.58c5.79,0,9.26,4.2,9.26,10.36Zm44.64-31H642.39v9.21h16.72v5.45H642.39v16.33h-5.78V401.57h24.62ZM684.67,432v6.21h-5.45v-3.51h-.09c-1.64,2.6-4.73,4-8.58,4-6.31,0-8.63-3.9-8.63-7.61a7,7,0,0,1,2.89-5.79c2.17-1.58,5.64-2.55,12.73-2.55h1.39v-1.35c0-2.84-1.3-4.72-5-4.72-4,0-5.16,2-5.25,3.71h-5.5c.1-3.81,2.32-8.24,10.85-8.24,6.5,0,10.6,2.6,10.6,10.94Zm17.36,6.5a24.39,24.39,0,0,1-3.42.19c-6,0-8.05-2.64-8.05-7.61v-13.2h-3.23v-4.44c2.85,0,3.52-1.25,3.52-4.14v-2.89h5.4v6.5h5.35v5h-5.35v11.75c0,3.19,1.2,4,4.14,4,.53,0,1,0,1.64-.05Zm14.66.48c-7.9,0-12.19-5.78-12.19-13.49s4.48-13.35,12-13.35c6.75,0,11.76,4.43,11.76,11.57v3.56l-18,.05c.39,4.24,2.66,6.94,6.56,6.94a6,6,0,0,0,5.88-3.81h5.64C727.82,434.24,723.82,439,716.69,439Zm61.5-.77H748.33V430.4h29.86Zm7.53-14.8H748.33V415.6h37.39Z" transform="translate(-377.25 -382.1)"/></svg>